<svg xmlns="http://www.w3.org/2000/svg" width="17" height="17" fill="none" viewBox="0 0 17 17"><path fill="#9CBBEF" d="M2.75001 2.5H14.75C14.9268 2.5 15.0964 2.57024 15.2214 2.69526C15.3464 2.82029 15.4167 2.98986 15.4167 3.16667V13.8333C15.4167 14.0101 15.3464 14.1797 15.2214 14.3047C15.0964 14.4298 14.9268 14.5 14.75 14.5H2.75001C2.5732 14.5 2.40363 14.4298 2.27861 14.3047C2.15358 14.1797 2.08334 14.0101 2.08334 13.8333V3.16667C2.08334 2.98986 2.15358 2.82029 2.27861 2.69526C2.40363 2.57024 2.5732 2.5 2.75001 2.5ZM8.79001 8.28867L4.51534 4.65867L3.65201 5.67467L8.79868 10.0447L13.8527 5.67133L12.9807 4.66267L8.79068 8.28867H8.79001Z"/></svg>