<svg xmlns="http://www.w3.org/2000/svg" width="169" height="24" fill="none" viewBox="0 0 169 24"><path fill="#9CBBEF" d="M22.912 5.65593C22.1486 5.99362 21.339 6.2154 20.51 6.31393C21.3838 5.79136 22.0377 4.96894 22.35 3.99993C21.53 4.48793 20.631 4.82993 19.694 5.01493C19.0646 4.34151 18.2304 3.89489 17.321 3.74451C16.4116 3.59413 15.4779 3.74842 14.6653 4.18338C13.8526 4.61834 13.2064 5.30961 12.8271 6.14972C12.4478 6.98983 12.3568 7.93171 12.568 8.82893C10.9051 8.74558 9.27834 8.31345 7.79329 7.56059C6.30825 6.80773 4.99813 5.75097 3.94801 4.45893C3.5763 5.09738 3.38096 5.82315 3.38201 6.56193C3.38201 8.01193 4.12001 9.29293 5.24201 10.0429C4.57802 10.022 3.92864 9.84271 3.34801 9.51993V9.57193C3.34821 10.5376 3.68238 11.4735 4.29385 12.221C4.90533 12.9684 5.75649 13.4814 6.70301 13.6729C6.08662 13.84 5.44031 13.8646 4.81301 13.7449C5.07987 14.5762 5.60001 15.3031 6.3006 15.824C7.00118 16.3449 7.84714 16.6337 8.72001 16.6499C7.85249 17.3313 6.85918 17.8349 5.79689 18.1321C4.73459 18.4293 3.62413 18.5142 2.52901 18.3819C4.4407 19.6114 6.6661 20.264 8.93901 20.2619C16.632 20.2619 20.839 13.8889 20.839 8.36193C20.839 8.18193 20.834 7.99993 20.826 7.82193C21.6449 7.23009 22.3516 6.49695 22.913 5.65693L22.912 5.65593Z"/><path fill="#9CBBEF" d="M55.277 14.514C55.2752 15.035 55.0673 15.5342 54.6988 15.9025C54.3303 16.2708 53.831 16.4784 53.31 16.48C52.7888 16.4784 52.2894 16.2707 51.9209 15.9021C51.5523 15.5336 51.3446 15.0342 51.343 14.513C51.343 13.43 52.227 12.545 53.31 12.545H55.278V14.513L55.277 14.514ZM56.269 14.514C56.269 13.431 57.153 12.546 58.236 12.546C59.319 12.546 60.204 13.431 60.204 14.514V19.441C60.2024 19.9624 59.9945 20.4619 59.6258 20.8305C59.257 21.1991 58.7574 21.4067 58.236 21.408C57.7148 21.4064 57.2154 21.1987 56.8469 20.8301C56.4783 20.4616 56.2706 19.9622 56.269 19.441V14.514ZM58.236 6.52702C57.715 6.52517 57.2158 6.31731 56.8475 5.9488C56.4792 5.58028 56.2716 5.08104 56.27 4.56002C56.27 3.47702 57.154 2.59302 58.237 2.59302C59.32 2.59302 60.205 3.47702 60.205 4.56002V6.52802H58.236V6.52702ZM58.236 7.51902C59.319 7.51902 60.204 8.40302 60.204 9.48602C60.2027 10.0076 59.9949 10.5074 59.6261 10.8761C59.2573 11.2449 58.7575 11.4527 58.236 11.454H53.31C52.7886 11.4524 52.2891 11.2446 51.9205 10.8758C51.5519 10.507 51.3443 10.0074 51.343 9.48602C51.343 8.40302 52.227 7.51902 53.31 7.51902H58.237H58.236ZM66.223 9.48602C66.223 8.40302 67.108 7.51902 68.191 7.51902C69.274 7.51902 70.158 8.40302 70.158 9.48602C70.1567 10.0074 69.9491 10.507 69.5805 10.8758C69.2119 11.2446 68.7124 11.4524 68.191 11.454H66.223V9.48602ZM65.231 9.48602C65.2297 10.0074 65.0221 10.507 64.6535 10.8758C64.2849 11.2446 63.7854 11.4524 63.264 11.454C62.7425 11.4527 62.2427 11.2449 61.8739 10.8761C61.5051 10.5074 61.2973 10.0076 61.296 9.48602V4.56002C61.296 3.47702 62.181 2.59302 63.264 2.59302C64.347 2.59302 65.231 3.47702 65.231 4.56002V9.48702V9.48602ZM63.264 17.473C64.347 17.473 65.231 18.358 65.231 19.441C65.2294 19.9622 65.0217 20.4616 64.6531 20.8301C64.2846 21.1987 63.7852 21.4064 63.264 21.408C62.7426 21.4067 62.243 21.1991 61.8742 20.8305C61.5055 20.4619 61.2976 19.9624 61.296 19.441V17.473H63.264ZM63.264 16.481C62.7426 16.4797 62.243 16.2721 61.8742 15.9035C61.5055 15.5349 61.2976 15.0354 61.296 14.514C61.296 13.431 62.181 12.546 63.264 12.546H68.191C69.274 12.546 70.158 13.431 70.158 14.514C70.1564 15.0352 69.9487 15.5346 69.5801 15.9031C69.2116 16.2717 68.7122 16.4794 68.191 16.481H63.264Z"/><path fill="#9CBBEF" d="M108.75 2C111.467 2 111.806 2.01 112.872 2.06C113.937 2.11 114.662 2.277 115.3 2.525C115.96 2.779 116.516 3.123 117.072 3.678C117.58 4.1779 117.974 4.78259 118.225 5.45C118.472 6.087 118.64 6.813 118.69 7.878C118.737 8.944 118.75 9.283 118.75 12C118.75 14.717 118.74 15.056 118.69 16.122C118.64 17.187 118.472 17.912 118.225 18.55C117.975 19.2178 117.581 19.8226 117.072 20.322C116.572 20.8303 115.967 21.2238 115.3 21.475C114.663 21.722 113.937 21.89 112.872 21.94C111.806 21.987 111.467 22 108.75 22C106.033 22 105.694 21.99 104.628 21.94C103.563 21.89 102.838 21.722 102.2 21.475C101.532 21.2245 100.928 20.8309 100.428 20.322C99.9194 19.8222 99.5259 19.2175 99.275 18.55C99.027 17.913 98.86 17.187 98.81 16.122C98.763 15.056 98.75 14.717 98.75 12C98.75 9.283 98.76 8.944 98.81 7.878C98.86 6.812 99.027 6.088 99.275 5.45C99.5252 4.78218 99.9188 4.17732 100.428 3.678C100.928 3.16923 101.532 2.77573 102.2 2.525C102.838 2.277 103.562 2.11 104.628 2.06C105.694 2.013 106.033 2 108.75 2ZM108.75 7C107.424 7 106.152 7.52678 105.214 8.46447C104.277 9.40215 103.75 10.6739 103.75 12C103.75 13.3261 104.277 14.5979 105.214 15.5355C106.152 16.4732 107.424 17 108.75 17C110.076 17 111.348 16.4732 112.286 15.5355C113.223 14.5979 113.75 13.3261 113.75 12C113.75 10.6739 113.223 9.40215 112.286 8.46447C111.348 7.52678 110.076 7 108.75 7ZM115.25 6.75C115.25 6.41848 115.118 6.10054 114.884 5.86612C114.649 5.6317 114.332 5.5 114 5.5C113.668 5.5 113.351 5.6317 113.116 5.86612C112.882 6.10054 112.75 6.41848 112.75 6.75C112.75 7.08152 112.882 7.39946 113.116 7.63388C113.351 7.8683 113.668 8 114 8C114.332 8 114.649 7.8683 114.884 7.63388C115.118 7.39946 115.25 7.08152 115.25 6.75ZM108.75 9C109.546 9 110.309 9.31607 110.871 9.87868C111.434 10.4413 111.75 11.2044 111.75 12C111.75 12.7956 111.434 13.5587 110.871 14.1213C110.309 14.6839 109.546 15 108.75 15C107.954 15 107.191 14.6839 106.629 14.1213C106.066 13.5587 105.75 12.7956 105.75 12C105.75 11.2044 106.066 10.4413 106.629 9.87868C107.191 9.31607 107.954 9 108.75 9Z"/><path fill="#9CBBEF" d="M158.75 13.5H161.25L162.25 9.5H158.75V7.5C158.75 6.47 158.75 5.5 160.75 5.5H162.25V2.14C161.924 2.097 160.693 2 159.393 2C156.678 2 154.75 3.657 154.75 6.7V9.5H151.75V13.5H154.75V22H158.75V13.5Z"/></svg>